<?xml version="1.0" standalone="no"?>
<!DOCTYPE svg PUBLIC "-//W3C//DTD SVG 20010904//EN"
 "http://www.w3.org/TR/2001/REC-SVG-20010904/DTD/svg10.dtd">
<svg version="1.0" xmlns="http://www.w3.org/2000/svg"
 width="512.000000pt" height="512.000000pt" viewBox="0 0 512.000000 512.000000"
 preserveAspectRatio="xMidYMid meet">

<g transform="translate(0.000000,512.000000) scale(0.100000,-0.100000)"
fill="#000000" stroke="none">
<path d="M860 3449 c-30 -16 -99 -53 -153 -81 -54 -28 -96 -57 -95 -63 5 -20
812 -1564 816 -1560 2 2 -2 20 -9 42 -8 26 -13 155 -16 402 l-5 364 -235 451
c-130 248 -238 456 -242 463 -4 8 -23 2 -61 -18z"/>
<path d="M4103 2545 c-222 -425 -403 -779 -403 -787 0 -23 -68 -158 -100 -199
-17 -20 -122 -214 -235 -430 l-205 -392 0 -369 0 -368 200 0 200 0 0 372 0
372 586 1126 c323 619 606 1161 630 1205 l43 80 -157 82 -157 81 -402 -773z"/>
<path d="M1541 1522 c52 -95 163 -166 274 -177 l60 -6 -55 19 c-95 32 -157 70
-232 140 l-72 67 25 -43z"/>
</g>
</svg>
